<?xml version="1.0" encoding="utf-8"?>
<!-- Generator: Adobe Illustrator 17.1.0, SVG Export Plug-In . SVG Version: 6.00 Build 0)  -->
<!DOCTYPE svg PUBLIC "-//W3C//DTD SVG 1.1//EN" "http://www.w3.org/Graphics/SVG/1.1/DTD/svg11.dtd">
<svg version="1.1" xmlns="http://www.w3.org/2000/svg" xmlns:xlink="http://www.w3.org/1999/xlink" x="0px" y="0px"
	 viewBox="50 20 600 725" style="enable-background:new 0 0 646 780;" xml:space="preserve">
<style type="text/css">
	.st0{fill:#5FC3AC;}
	.st1{fill:#273778;}
	.st2{fill:#FFFFFF;}
	.st3{opacity:0.4;}
	.st4{fill:#9D9D9D;}
</style>
<g id="_x31_">
	<g>
		<g class="st3">
			<g>
				<circle class="st4" cx="323" cy="402.7" r="257.2"/>
			</g>
		</g>
		<g>
			<g>
				<path class="st2" d="M323,439L110,226L323,13l213,213L323,439z M131.7,226L323,417.3L514.3,226L323,34.7L131.7,226z"/>
			</g>
			<g>
				<path class="st2" d="M323,671L11.2,459.6L323,248.2l311.8,211.4L323,671z M38.5,459.6L323,652.5l284.5-192.9L323,266.7
					L38.5,459.6z"/>
			</g>
			<g>
				<rect x="315.3" y="145.4" class="st2" width="15.3" height="516.3"/>
			</g>
			<g>
				<path class="st2" d="M323,767L111.5,346.1L323,134.6l211.5,211.5l-2.5,4.9L323,767z M130.2,349.1L323,732.9l192.8-383.7
					L323,156.3L130.2,349.1z"/>
			</g>
			<g>
				<circle class="st2" cx="323" cy="145.4" r="19"/>
			</g>
			<g>
				<circle class="st2" cx="323" cy="659.9" r="19"/>
			</g>
		</g>
	</g>
</g>
<g id="_x32_">
</g>
<g id="_x33_">
</g>
<g id="_x34_">
</g>
</svg>
